<svg width="11" height="12" viewBox="0 0 11 12" fill="none" xmlns="http://www.w3.org/2000/svg">
<circle cx="5.5" cy="5.5" r="5.5" fill="#47CC4C"/>
<path d="M4.68182 7.03764V6.92898C4.68395 6.55611 4.71697 6.25888 4.78089 6.03729C4.84695 5.8157 4.94283 5.63672 5.06854 5.50036C5.19425 5.36399 5.34553 5.24041 5.52237 5.12962C5.65447 5.04439 5.77273 4.95597 5.87713 4.86435C5.98153 4.77273 6.06463 4.67152 6.12642 4.56072C6.18821 4.4478 6.21911 4.32209 6.21911 4.18359C6.21911 4.03658 6.18395 3.90767 6.11364 3.79688C6.04332 3.68608 5.94851 3.60085 5.82919 3.54119C5.712 3.48153 5.58203 3.4517 5.43928 3.4517C5.30078 3.4517 5.16974 3.4826 5.04616 3.54439C4.92259 3.60405 4.82138 3.69354 4.74254 3.81286C4.66371 3.93004 4.62109 4.07599 4.6147 4.25071H3.31072C3.32138 3.82457 3.42365 3.47301 3.61754 3.19602C3.81143 2.9169 4.06818 2.70916 4.38778 2.5728C4.70739 2.4343 5.06001 2.36506 5.44567 2.36506C5.86967 2.36506 6.24467 2.43537 6.57067 2.57599C6.89666 2.71449 7.15234 2.91584 7.33771 3.18004C7.52308 3.44425 7.61577 3.76278 7.61577 4.13565C7.61577 4.38494 7.57422 4.60653 7.49112 4.80043C7.41016 4.99219 7.29616 5.16264 7.14915 5.31179C7.00213 5.45881 6.82848 5.59197 6.6282 5.71129C6.45987 5.81143 6.32138 5.91584 6.21271 6.0245C6.10618 6.13317 6.02628 6.25888 5.97301 6.40163C5.92188 6.54439 5.89524 6.72017 5.89311 6.92898V7.03764H4.68182ZM5.31463 9.0831C5.10156 9.0831 4.91939 9.00852 4.76811 8.85938C4.61896 8.7081 4.54545 8.52699 4.54759 8.31605C4.54545 8.10724 4.61896 7.92827 4.76811 7.77912C4.91939 7.62997 5.10156 7.5554 5.31463 7.5554C5.51705 7.5554 5.69496 7.62997 5.84837 7.77912C6.00178 7.92827 6.07955 8.10724 6.08168 8.31605C6.07955 8.45668 6.04226 8.58558 5.96982 8.70277C5.8995 8.81783 5.80682 8.91051 5.69176 8.98082C5.5767 9.04901 5.45099 9.0831 5.31463 9.0831Z" fill="white"/>
</svg>
