<svg width="39" height="46" viewBox="0 0 39 46" fill="none" xmlns="http://www.w3.org/2000/svg">
<path d="M38.9482 2.62326C38.9462 1.70461 37.8105 1.27458 37.2005 1.96148L22.9538 18.0042C22.4937 18.5223 22.6872 19.34 23.3306 19.5969L37.6259 25.3053C38.2835 25.5679 38.9983 25.0826 38.9967 24.3744L38.9482 2.62326Z" fill="#47CC4C"/>
<path d="M0.0518163 2.62326C0.0538642 1.70461 1.18954 1.27458 1.79954 1.96148L16.0463 18.0042C16.5063 18.5223 16.3129 19.34 15.6694 19.5969L1.37417 25.3053C0.716501 25.5679 0.0017478 25.0826 0.00332651 24.3744L0.0518163 2.62326Z" fill="#47CC4C"/>
<path d="M0 27.5008L16.9712 22.3844L16.9917 34.1362L0 27.5008Z" fill="#47CC4C"/>
<path d="M37.7038 27.7567L20.7326 22.6403L20.7121 34.3921L37.7038 27.7567Z" fill="#47CC4C"/>
<path d="M37.7054 29.5474L20.7137 36.4622V46L37.7054 29.5474Z" fill="#47CC4C"/>
<path d="M0 29.5474L16.9917 36.4622V46L0 29.5474Z" fill="#47CC4C"/>
</svg>
